<?xml version="1.0" encoding="UTF-8"?>
<svg id="Layer_2" data-name="Layer 2" xmlns="http://www.w3.org/2000/svg" xmlns:xlink="http://www.w3.org/1999/xlink" viewBox="0 0 236.03 253.47">
  <defs>
    <style>
      .cls-1 {
        fill: url(#linear-gradient-2);
      }

      .cls-2 {
        fill: #fff;
      }

      .cls-3 {
        fill: url(#linear-gradient-4);
      }

      .cls-4 {
        fill: url(#linear-gradient-3);
      }

      .cls-5 {
        fill: none;
        stroke: url(#linear-gradient-5);
        stroke-miterlimit: 10;
        stroke-width: 16px;
      }

      .cls-6 {
        fill: url(#linear-gradient);
      }

      .cls-7 {
        fill: #22a3a1;
      }

      .cls-8 {
        clip-path: url(#clippath);
      }

      .cls-9 {
        fill: #fdfdfd;
      }
    </style>
    <linearGradient id="linear-gradient" x1="45.55" y1="145.99" x2="217.04" y2="145.99" gradientUnits="userSpaceOnUse">
      <stop offset="0" stop-color="#6aad4c"/>
      <stop offset="1" stop-color="#93c359"/>
    </linearGradient>
    <linearGradient id="linear-gradient-2" x1="145.57" y1="125.32" x2="208.5" y2="125.32" xlink:href="#linear-gradient"/>
    <linearGradient id="linear-gradient-3" x1="19" y1="125.32" x2="67.99" y2="125.32" gradientUnits="userSpaceOnUse">
      <stop offset="0" stop-color="#263c7b"/>
      <stop offset="1" stop-color="#23619d"/>
    </linearGradient>
    <clipPath id="clippath">
      <path class="cls-4" d="M67.99,19v48.84c-13.71,10.98-23.61,26.52-27.39,44.29l-6.09-7.76-15.52,19.8V19h48.99ZM39.45,137.4c-.19-1.6-.37-3.08-.29-4.74h11.51l-16.15-20.6-15.52,20.6v98.97h48.99v-42.96c-15.47-12.39-26.1-30.6-28.55-51.27Z"/>
    </clipPath>
    <linearGradient id="linear-gradient-4" x1="37.14" y1="125.45" x2="50.72" y2="125.45" xlink:href="#linear-gradient-3"/>
    <linearGradient id="linear-gradient-5" x1="27.1" y1="128.29" x2="72.98" y2="128.29" gradientUnits="userSpaceOnUse">
      <stop offset="0" stop-color="#263c7b"/>
      <stop offset=".24" stop-color="#254583"/>
      <stop offset="1" stop-color="#23619d"/>
    </linearGradient>
  </defs>
  <g id="Layer_3" data-name="Layer 3">
    <g>
      <g>
        <path class="cls-2" d="M206.71,253.47c-4.67,0-9.17-1.08-13.22-3.13-1.08.19-2.18.29-3.29.29h-44.63c-10.49,0-19-8.51-19-19v-14.22c-3.4.39-6.83.58-10.28.58-10.08,0-19.97-1.68-29.29-4.9v18.53c0,10.49-8.51,19-19,19H19c-10.49,0-19-8.51-19-19V19C0,8.51,8.51,0,19,0h48.99c10.49,0,19,8.51,19,19v24.41c9.33-3.22,19.21-4.89,29.29-4.89,3.47,0,6.9.2,10.28.58v-20.1c0-10.49,8.51-19,19-19h49c10.49,0,18.99,8.5,19,18.99l.05,83.21c5.17,1.45,9.59,5.05,11.99,10.04,3.17,6.56,2.3,14.37-2.23,20.08l-9.75,12.29v1c0,.53-.02,1.07-.07,1.59v40.79c0,.49-.02.98-.06,1.46l13.94,13.94c11.44,11.44,11.44,30.04,0,41.48-5.54,5.54-12.91,8.59-20.74,8.59Z"/>
        <path class="cls-2" d="M214.02,216.84l-43.34-43.34c8.75-10.51,14.51-23.59,15.98-37.94l5.65,7.12c-2.06,10.85-6.43,21.18-12.82,30.23l15.08,15.08v-42.47l.07.08v-7.63s0,0,0,0l13.87-17.48h-13.87v-4.74h0l-.06-96.76h-48.99v37.63c24.48,10.04,42.71,32.29,47.09,59.13h-6.73c-5.9-33.11-34.84-58.24-69.64-58.24-18.63,0-35.58,7.21-48.21,18.98l-.02-14.3s-.04.03-.06.04V19H19v212.63h48.99v-37.46c.09.07.18.14.27.2l-.02-14.2c12.62,11.68,29.5,18.82,48.05,18.82,14.4,0,27.8-4.31,38.97-11.7l44.15,44.15c2.02,2.02,4.66,3.03,7.3,3.03s5.29-1.01,7.3-3.03c4.03-4.03,4.03-10.58,0-14.61ZM34.52,104.37l2.98,3.8h0s-2.98-3.8-2.98-3.8h0ZM154.26,195.69l35.94,35.94h-44.63v-31.73c2.97-1.22,5.88-2.62,8.69-4.21Z"/>
      </g>
      <g>
        <g>
          <path class="cls-6" d="M214.02,216.84l-43.34-43.34c10.21-12.26,16.36-28.03,16.36-45.24,0-39.07-31.67-70.74-70.74-70.74s-70.74,31.67-70.74,70.74,31.67,70.74,70.74,70.74c14.4,0,27.8-4.31,38.97-11.7l44.15,44.15c2.02,2.02,4.66,3.03,7.3,3.03s5.29-1.01,7.3-3.03c4.03-4.03,4.03-10.58,0-14.61Z"/>
          <circle class="cls-9" cx="116.29" cy="127.68" r="56.3"/>
        </g>
        <g>
          <polygon class="cls-2" points="19 127.61 19 124.17 34.43 104.27 60.47 137.48 19 137.48 19 127.61"/>
          <polygon points="34.52 112.06 19 132.73 50.72 132.73 34.52 112.06"/>
        </g>
        <g>
          <polygon class="cls-2" points="170.94 115.76 194.63 115.76 194.63 145.61 170.94 115.76"/>
          <polygon points="194.63 137.98 208.5 120.5 180.76 120.5 194.63 137.98"/>
        </g>
        <g>
          <path class="cls-1" d="M194.56,145.52v42.47l-15.08-15.08c6.4-9.05,10.76-19.39,12.82-30.23l2.26,2.84ZM194.63,120.5l-.07-101.5h-48.99v37.63c24.48,10.04,42.71,32.29,47.09,59.13.25,1.73.37,3.34.22,4.74h-12.11l13.87,17.48,13.87-17.48h-13.87ZM154.26,195.69c-2.81,1.59-5.72,2.99-8.69,4.21v31.73h44.63l-35.94-35.94Z"/>
          <g>
            <path class="cls-4" d="M67.99,19v48.84c-13.71,10.98-23.61,26.52-27.39,44.29l-6.09-7.76-15.52,19.8V19h48.99ZM39.45,137.4c-.19-1.6-.37-3.08-.29-4.74h11.51l-16.15-20.6-15.52,20.6v98.97h48.99v-42.96c-15.47-12.39-26.1-30.6-28.55-51.27Z"/>
            <g class="cls-8">
              <path class="cls-3" d="M39.32,118.12c.05.56,11.41,14.62,11.41,14.62l-13.59.04,2.18-14.66Z"/>
              <path class="cls-5" d="M68.27,194.38c-20.39-14.89-33.17-39.01-33.17-66.19s12.69-51.08,32.96-65.99"/>
            </g>
          </g>
        </g>
        <g>
          <g>
            <rect class="cls-7" x="131.39" y="110.7" width="11.14" height="40.23"/>
            <rect class="cls-7" x="115.56" y="115.47" width="11.14" height="35.91"/>
            <rect class="cls-7" x="99.72" y="115.47" width="11.14" height="35.91"/>
            <rect class="cls-7" x="83.88" y="130.18" width="11.14" height="21.2"/>
          </g>
          <g>
            <path class="cls-2" d="M83.71,146.93c-3.2,0-6.3-1.33-8.5-3.66l-2.56-2.71c-4.41-4.67-4.21-12.07.44-16.5l22.81-21.66c2.55-2.41,5.85-3.72,9.33-3.72s6.65,1.26,9.16,3.56l2.52,2.31,3.16-3.2c-.95-2.39-1.02-5.1-.11-7.59,1.42-3.88,5-6.61,9.12-6.96l14.05-1.18c.28-.02.62-.04.9-.04,2.97,0,5.83,1.26,7.84,3.44,2.01,2.19,3.02,5.14,2.78,8.11l-1.18,14.05c-.47,5.57-5.04,9.76-10.62,9.76h0c-1.19,0-2.35-.19-3.45-.57l-12.34,12.52c-2.56,2.6-5.99,4.04-9.66,4.04-3.4,0-6.65-1.26-9.16-3.56l-2.84-2.6-13.63,12.95c-2.18,2.07-5.04,3.22-8.05,3.22Z"/>
            <path class="cls-7" d="M143.95,95.56l-14.05,1.18c-.56.05-.81.73-.41,1.12l4.04,4.04-16.28,16.52-9.63-8.82c-1.38-1.26-3.49-1.24-4.85.04l-22.8,21.66c-.68.64-.7,1.71-.06,2.39l2.56,2.71c.64.68,1.72.71,2.39.06l20.39-19.38,9.72,8.9c1.41,1.29,3.59,1.24,4.94-.13l18.65-18.92,3.8,3.8c.4.4,1.07.15,1.12-.41l1.18-14.05c.03-.41-.31-.75-.71-.71Z"/>
          </g>
        </g>
      </g>
    </g>
  </g>
</svg>