<?xml version="1.0" encoding="UTF-8"?>
<svg id="Layer_2" data-name="Layer 2" xmlns="http://www.w3.org/2000/svg" xmlns:xlink="http://www.w3.org/1999/xlink" viewBox="0 0 913.52 253.47">
  <defs>
    <style>
      .cls-1 {
        fill: url(#linear-gradient-15);
      }

      .cls-2 {
        fill: url(#linear-gradient-13);
      }

      .cls-3 {
        fill: url(#linear-gradient-2);
      }

      .cls-4 {
        fill: url(#linear-gradient-10);
      }

      .cls-5 {
        fill: url(#linear-gradient-12);
      }

      .cls-6 {
        fill: #fff;
      }

      .cls-7 {
        fill: url(#linear-gradient-4);
      }

      .cls-8 {
        fill: url(#linear-gradient-3);
      }

      .cls-9 {
        fill: url(#linear-gradient-5);
      }

      .cls-10 {
        fill: url(#linear-gradient-8);
      }

      .cls-11 {
        fill: none;
        stroke: url(#linear-gradient-17);
        stroke-miterlimit: 10;
        stroke-width: 16px;
      }

      .cls-12 {
        fill: url(#linear-gradient-14);
      }

      .cls-13 {
        fill: url(#linear-gradient-7);
      }

      .cls-14 {
        fill: url(#linear-gradient-9);
      }

      .cls-15 {
        fill: url(#linear-gradient-11);
      }

      .cls-16 {
        fill: url(#linear-gradient-6);
      }

      .cls-17 {
        fill: url(#linear-gradient-16);
      }

      .cls-18 {
        fill: url(#linear-gradient);
      }

      .cls-19 {
        fill: #22a3a1;
      }

      .cls-20 {
        clip-path: url(#clippath);
      }

      .cls-21 {
        fill: #fdfdfd;
      }
    </style>
    <linearGradient id="linear-gradient" x1="409.92" y1="116.88" x2="527.58" y2="116.88" gradientUnits="userSpaceOnUse">
      <stop offset="0" stop-color="#6aad4c"/>
      <stop offset="1" stop-color="#93c359"/>
    </linearGradient>
    <linearGradient id="linear-gradient-2" x1="259.26" x2="347.86" xlink:href="#linear-gradient"/>
    <linearGradient id="linear-gradient-3" x1="368" x2="389.7" xlink:href="#linear-gradient"/>
    <linearGradient id="linear-gradient-4" x1="540.59" x2="622.2" xlink:href="#linear-gradient"/>
    <linearGradient id="linear-gradient-5" x1="634.02" y1="72.53" x2="657.96" y2="72.53" xlink:href="#linear-gradient"/>
    <linearGradient id="linear-gradient-6" x1="635.88" y1="130.89" x2="655.95" y2="130.89" xlink:href="#linear-gradient"/>
    <linearGradient id="linear-gradient-7" x1="768.33" x2="840.43" xlink:href="#linear-gradient"/>
    <linearGradient id="linear-gradient-8" x1="848.01" y1="122.28" x2="897.52" y2="122.28" xlink:href="#linear-gradient"/>
    <linearGradient id="linear-gradient-9" x1="669.48" y1="145.36" x2="751.46" y2="145.36" xlink:href="#linear-gradient"/>
    <linearGradient id="linear-gradient-10" x1="259.26" y1="116.88" x2="527.58" y2="116.88" gradientUnits="userSpaceOnUse">
      <stop offset="0" stop-color="#263c7b"/>
      <stop offset="1" stop-color="#23619d"/>
    </linearGradient>
    <linearGradient id="linear-gradient-11" x1="540.59" y1="130.13" x2="897.52" y2="130.13" xlink:href="#linear-gradient"/>
    <linearGradient id="linear-gradient-12" x1="45.55" y1="145.99" x2="217.04" y2="145.99" xlink:href="#linear-gradient"/>
    <linearGradient id="linear-gradient-13" x1="145.57" y1="125.32" x2="208.5" y2="125.32" xlink:href="#linear-gradient"/>
    <linearGradient id="linear-gradient-14" x1="19" y1="125.32" x2="67.99" y2="125.32" xlink:href="#linear-gradient-10"/>
    <linearGradient id="linear-gradient-15" x1="19" y1="125.32" x2="67.99" y2="125.32" xlink:href="#linear-gradient-10"/>
    <clipPath id="clippath">
      <path class="cls-1" d="M67.99,19v48.84c-13.71,10.98-23.61,26.52-27.39,44.29l-6.09-7.76-15.52,19.8V19h48.99ZM39.44,137.4c-.19-1.6-.37-3.08-.29-4.74h11.51l-16.15-20.6-15.52,20.6v98.97h48.99v-42.96c-15.47-12.39-26.1-30.6-28.55-51.27Z"/>
    </clipPath>
    <linearGradient id="linear-gradient-16" x1="37.14" y1="125.45" x2="50.72" y2="125.45" xlink:href="#linear-gradient-10"/>
    <linearGradient id="linear-gradient-17" x1="27.1" y1="128.29" x2="72.98" y2="128.29" gradientUnits="userSpaceOnUse">
      <stop offset="0" stop-color="#263c7b"/>
      <stop offset=".24" stop-color="#254583"/>
      <stop offset="1" stop-color="#23619d"/>
    </linearGradient>
  </defs>
  <g id="Layer_3" data-name="Layer 3">
    <g>
      <g>
        <g>
          <g>
            <polygon class="cls-18" points="469.09 140.5 468.86 140.5 436.31 65.33 409.99 65.33 409.92 168.43 430.58 168.43 430.58 105.29 430.29 97.52 430.58 97.52 460.84 168.43 476.82 168.43 507.44 97.08 507.74 97.08 507.37 104.86 507.37 168.43 527.58 168.43 527.58 65.33 501.57 65.33 469.09 140.5"/>
            <polygon class="cls-3" points="326.38 106.73 280.81 106.73 280.81 65.33 259.26 65.33 259.26 168.43 280.81 168.43 280.81 125.81 326.38 125.81 326.38 168.43 347.86 168.43 347.86 65.33 326.38 65.33 326.38 106.73"/>
            <rect class="cls-8" x="368" y="65.33" width="21.7" height="103.1"/>
            <path class="cls-7" d="M590.47,107.09c-10.8-3.12-17.58-5.77-20.33-7.96-2.75-2.18-4.13-4.84-4.13-7.96,0-3.41,1.5-6.13,4.5-8.17,3-2.04,6.92-3.06,11.78-3.06,3.12,0,5.82.38,8.1,1.15,2.28.77,4.31,1.96,6.1,3.56,1.78,1.61,3.77,4.31,5.95,8.1l17.69-6.77c-3.37-6.19-6.74-10.76-10.11-13.72-3.37-2.95-7.31-5.16-11.82-6.62-4.51-1.46-9.81-2.2-15.91-2.2-11.15,0-20.13,2.69-26.94,8.06-6.81,5.38-10.22,12.24-10.22,20.59,0,7.06,2.37,13.04,7.1,17.96,4.73,4.92,12.92,9.04,24.57,12.35,9.32,2.69,15.71,5.22,19.18,7.6,3.47,2.38,5.2,5.6,5.2,9.68,0,4.32-1.6,7.72-4.79,10.19-3.2,2.47-7.52,3.71-12.97,3.71-3.86,0-7.28-.59-10.26-1.76-2.97-1.18-5.5-2.77-7.58-4.79-2.08-2.02-4.31-5.57-6.69-10.66l-18.28,6.77c3.52,7.63,7.05,13.15,10.59,16.56,3.54,3.41,7.93,6.02,13.16,7.85,5.23,1.82,11.36,2.74,18.4,2.74,11.64,0,21.13-2.82,28.47-8.46,7.33-5.64,11-13.24,11-22.79,0-7.54-2.43-13.93-7.28-19.19-4.86-5.26-13.01-9.51-24.45-12.78Z"/>
            <path class="cls-9" d="M645.99,61.08c-3.27,0-6.08,1.09-8.44,3.28-2.35,2.18-3.53,4.86-3.53,8.03s1.18,6.01,3.53,8.24c2.35,2.23,5.17,3.35,8.44,3.35s6.27-1.12,8.55-3.35c2.28-2.23,3.42-4.98,3.42-8.24s-1.14-5.84-3.42-8.03c-2.28-2.18-5.13-3.28-8.55-3.28Z"/>
            <rect class="cls-16" x="635.88" y="93.34" width="20.07" height="75.09"/>
            <path class="cls-13" d="M812.93,91.61c-5.35,0-10.23,1.18-14.64,3.53-4.41,2.35-7.78,5.45-10.11,9.29h-.22v-39.09h-19.62v103.1h20.07v-42.05c0-5.18,1.66-9.5,4.98-12.96,3.32-3.46,7.36-5.18,12.12-5.18,5.05,0,8.81,1.44,11.26,4.32,2.45,2.88,3.68,6.74,3.68,11.59v44.28h19.99v-49.03c0-8.45-2.44-15.19-7.32-20.23-4.88-5.04-11.61-7.56-20.18-7.56Z"/>
            <path class="cls-10" d="M897.52,109.18v-15.84h-17.76v-19.08h-20.07v19.08h-11.67v15.84h11.67v38.02c0,7.82,2.11,13.63,6.32,17.42,4.21,3.79,9.84,5.69,16.87,5.69,2.28,0,4.39-.16,6.32-.47,1.93-.31,4.68-1.04,8.25-2.2v-15.12c-2.87.91-4.84,1.45-5.91,1.62-1.07.17-2.19.25-3.38.25-2.73.05-4.81-.67-6.24-2.16-1.44-1.49-2.15-3.98-2.15-7.49v-35.57h17.76Z"/>
            <path class="cls-14" d="M732.43,103.13h-.15c-2.38-3.36-5.85-6.13-10.41-8.32-4.56-2.18-9.59-3.28-15.09-3.28-11.05,0-20.03,3.61-26.94,10.84-6.91,7.22-10.37,16.4-10.37,27.54s3.43,20.11,10.29,27.22c6.86,7.1,15.47,10.66,25.83,10.66,6.19,0,11.43-1.09,15.72-3.28,4.29-2.18,7.64-4.86,10.07-8.03h.22v6.48c0,6.58-1.9,11.74-5.69,15.48-3.79,3.74-9.21,5.62-16.24,5.62-3.42,0-6.42-.41-8.99-1.22-2.58-.82-4.79-1.96-6.65-3.42-1.86-1.46-4.18-4.26-6.95-8.39l-15.83,7.78c3.86,5.9,7.51,10.12,10.93,12.64,3.42,2.52,7.4,4.44,11.93,5.76,4.53,1.32,9.82,1.98,15.87,1.98,12.98,0,23.14-3.3,30.48-9.9,7.33-6.6,11-15.95,11-28.04v-67.89h-19.03v9.79ZM726,145.79c-4.14,4.01-9.3,6.01-15.5,6.01s-11.41-1.98-15.5-5.94c-4.09-3.96-6.13-9.28-6.13-15.95s2.04-11.88,6.13-15.91c4.09-4.03,9.25-6.05,15.5-6.05s11.35,1.99,15.46,5.98c4.11,3.98,6.17,9.26,6.17,15.84.05,6.67-2,12.01-6.13,16.02Z"/>
          </g>
          <g>
            <path class="cls-6" d="M507.37,184.43c-7.13,0-13.17-4.66-15.24-11.11l-.61,1.42c-2.52,5.88-8.31,9.69-14.7,9.69h-15.98c-6.41,0-12.2-3.83-14.72-9.72l-.43-1c-2.18,6.24-8.12,10.72-15.11,10.72h-20.66c-4.25,0-8.32-1.69-11.32-4.69s-4.69-7.08-4.68-11.32l.07-103.1c0-8.83,7.17-15.99,16-15.99h26.31c6.38,0,12.15,3.79,14.68,9.64l17.97,41.49,17.92-41.47c2.53-5.86,8.3-9.65,14.69-9.65h26.02c8.84,0,16,7.16,16,16v103.1c0,8.84-7.16,16-16,16h-20.22Z"/>
            <path class="cls-6" d="M326.38,184.43c-8.84,0-16-7.16-16-16v-26.62h-13.56v26.62c0,8.84-7.16,16-16,16h-21.56c-8.84,0-16-7.16-16-16v-103.1c0-8.84,7.16-16,16-16h21.56c8.84,0,16,7.16,16,16v25.4h13.56v-25.4c0-8.84,7.16-16,16-16h21.48c8.84,0,16,7.16,16,16v103.1c0,8.84-7.16,16-16,16h-21.48Z"/>
            <rect class="cls-6" x="352" y="49.33" width="53.7" height="135.1" rx="16" ry="16"/>
            <path class="cls-6" d="M582.74,186.31c-8.8,0-16.76-1.22-23.67-3.63-7.4-2.58-13.78-6.42-18.98-11.42-5.04-4.84-9.63-11.84-14.03-21.39-1.87-4.05-1.96-8.69-.25-12.81s5.05-7.34,9.23-8.89l9.46-3.5c-1.38-1.12-2.64-2.28-3.81-3.49-7.57-7.86-11.57-17.91-11.57-29.05,0-13.27,5.64-24.73,16.31-33.15,9.67-7.63,22.07-11.5,36.85-11.5,7.75,0,14.76,1,20.85,2.98,6.57,2.13,12.43,5.43,17.42,9.81,4.84,4.24,9.3,10.16,13.62,18.1,2.21,4.05,2.56,8.86.96,13.19-1.6,4.33-4.98,7.76-9.29,9.41l-5.79,2.22c2.48,1.81,4.69,3.76,6.62,5.86,7.55,8.17,11.53,18.56,11.53,30.05,0,14.53-5.96,26.79-17.25,35.47-10.16,7.81-23.02,11.78-38.22,11.78Z"/>
            <path class="cls-6" d="M645.99,99.98c-7.39,0-14.11-2.68-19.45-7.74-5.57-5.28-8.52-12.15-8.52-19.85s3.07-14.58,8.65-19.76c5.32-4.94,12-7.55,19.32-7.55s14.34,2.67,19.61,7.72c5.47,5.24,8.35,12.01,8.35,19.58s-2.84,14.41-8.22,19.67c-5.29,5.18-12.12,7.92-19.74,7.92Z"/>
            <rect class="cls-6" x="619.88" y="77.34" width="52.07" height="107.09" rx="16" ry="16"/>
            <path class="cls-6" d="M820.44,184.43c-8.84,0-16-7.16-16-16v-42.79c-.02.2-.04.45-.04.74v42.05c0,8.84-7.16,16-16,16h-20.07c-8.84,0-16-7.16-16-16v-103.1c0-8.84,7.16-16,16-16h19.62c8.84,0,16,7.16,16,16v11.09c2.91-.54,5.9-.81,8.97-.81,16.23,0,26.18,6.76,31.67,12.43,7.85,8.11,11.83,18.66,11.83,31.37v49.03c0,8.84-7.16,16-16,16h-19.99Z"/>
            <path class="cls-6" d="M882.88,186.31c-11.08,0-20.36-3.3-27.58-9.8-5.29-4.76-11.61-13.72-11.61-29.31v-22.61c-6.73-1.89-11.67-8.07-11.67-15.41v-15.84c0-7.34,4.94-13.52,11.67-15.41v-3.67c0-8.84,7.16-16,16-16h20.07c8.84,0,16,7.16,16,16v3.08h1.76c8.84,0,16,7.16,16,16v15.84c0,8.84-7.16,16-16,16h-1.76v11.43c.56-.06,1.13-.09,1.69-.09,3.36,0,6.67,1.06,9.45,3.09,4.12,3.01,6.55,7.81,6.55,12.91v15.12c0,6.94-4.48,13.09-11.08,15.23-4.44,1.43-7.81,2.31-10.61,2.77-2.77.45-5.76.67-8.87.67Z"/>
            <path class="cls-6" d="M709.99,215.18c-7.53,0-14.37-.88-20.34-2.62-6.33-1.84-12.03-4.62-16.95-8.24-5.01-3.69-9.86-9.17-14.82-16.75-2.51-3.84-3.26-8.57-2.04-12.99,1.21-4.42,4.26-8.11,8.38-10.14l.51-.25c-7.46-9.46-11.24-20.96-11.24-34.28,0-15.34,4.98-28.33,14.81-38.6,9.88-10.32,23.19-15.77,38.5-15.77,6.6,0,12.86,1.14,18.66,3.4,2.11-1.02,4.48-1.6,6.98-1.6h19.03c8.84,0,16,7.16,16,16v67.89c0,16.77-5.48,30.2-16.3,39.94-10.33,9.3-24.19,14.01-41.18,14.01ZM710.51,123.96c-2.59,0-3.56.74-4.26,1.44-.44.44-1.37,1.35-1.37,4.52s.89,4.09,1.26,4.46c.71.69,1.7,1.43,4.37,1.43s3.62-.78,4.37-1.5c.42-.4,1.29-1.25,1.26-4.41v-.12c0-3.09-.88-3.94-1.3-4.35-.73-.71-1.73-1.47-4.33-1.47Z"/>
          </g>
        </g>
        <g>
          <path class="cls-4" d="M368,65.33h21.7v103.1h-21.7v-103.1ZM326.38,106.73h-45.56v-41.4h-21.56v103.1h21.56v-42.62h45.56v42.62h21.48v-103.1h-21.48v41.4ZM501.57,65.33l-32.48,75.17h-.22l-32.56-75.17h-26.31l-.07,103.1h20.66v-63.14l-.3-7.78h.3l30.25,70.92h15.98l30.62-71.35h.3l-.37,7.78v63.57h20.22v-103.1h-26.02Z"/>
          <path class="cls-15" d="M582.73,170.31c-7.04,0-13.17-.91-18.4-2.74-5.23-1.82-9.61-4.44-13.16-7.85-3.54-3.41-7.07-8.93-10.59-16.56l18.28-6.77c2.38,5.09,4.61,8.64,6.69,10.66,2.08,2.02,4.61,3.61,7.58,4.79,2.97,1.18,6.39,1.76,10.26,1.76,5.45,0,9.77-1.24,12.97-3.71,3.2-2.47,4.79-5.87,4.79-10.19,0-4.08-1.73-7.31-5.2-9.68-3.47-2.38-9.86-4.91-19.18-7.6-11.65-3.31-19.83-7.43-24.57-12.35-4.73-4.92-7.1-10.91-7.1-17.96,0-8.35,3.41-15.22,10.22-20.59,6.81-5.38,15.8-8.06,26.94-8.06,6.1,0,11.4.73,15.91,2.2,4.51,1.46,8.45,3.67,11.82,6.62,3.37,2.95,6.74,7.52,10.11,13.72l-17.69,6.77c-2.18-3.79-4.16-6.49-5.95-8.1-1.78-1.61-3.82-2.8-6.1-3.56-2.28-.77-4.98-1.15-8.1-1.15-4.86,0-8.78,1.02-11.78,3.06-3,2.04-4.5,4.76-4.5,8.17,0,3.12,1.38,5.77,4.13,7.96,2.75,2.18,9.53,4.84,20.33,7.96,11.45,3.26,19.6,7.52,24.45,12.78,4.86,5.26,7.28,11.65,7.28,19.19,0,9.55-3.67,17.15-11,22.79-7.33,5.64-16.82,8.46-28.47,8.46ZM645.99,83.98c-3.27,0-6.08-1.12-8.44-3.35-2.35-2.23-3.53-4.98-3.53-8.24s1.18-5.84,3.53-8.03c2.35-2.18,5.17-3.28,8.44-3.28s6.27,1.09,8.55,3.28c2.28,2.18,3.42,4.86,3.42,8.03s-1.14,6.01-3.42,8.24c-2.28,2.23-5.13,3.35-8.55,3.35ZM635.88,168.43v-75.09h20.07v75.09h-20.07ZM709.99,199.18c-6.05,0-11.34-.66-15.87-1.98-4.53-1.32-8.51-3.24-11.93-5.76-3.42-2.52-7.06-6.73-10.93-12.64l15.83-7.78c2.77,4.13,5.09,6.92,6.95,8.39,1.86,1.46,4.08,2.6,6.65,3.42,2.58.82,5.57,1.22,8.99,1.22,7.04,0,12.45-1.87,16.24-5.62,3.79-3.74,5.69-8.9,5.69-15.48v-6.48h-.22c-2.43,3.17-5.79,5.84-10.07,8.03-4.29,2.18-9.53,3.28-15.72,3.28-10.36,0-18.97-3.55-25.83-10.66-6.86-7.1-10.29-16.17-10.29-27.22s3.46-20.31,10.37-27.54c6.91-7.22,15.89-10.84,26.94-10.84,5.5,0,10.53,1.09,15.09,3.28,4.56,2.18,8.03,4.96,10.41,8.32h4.68l-4.53,5.26v-15.05h19.03v67.89c0,12.1-3.67,21.44-11,28.04-7.33,6.6-17.49,9.9-30.48,9.9ZM710.51,151.8c6.19,0,11.36-2,15.5-6.01,4.14-4.01,6.18-9.35,6.13-16.02,0-6.58-2.06-11.86-6.17-15.84-4.11-3.98-9.27-5.98-15.46-5.98s-11.41,2.02-15.5,6.05c-4.09,4.03-6.13,9.34-6.13,15.91s2.04,11.99,6.13,15.95c4.09,3.96,9.25,5.94,15.5,5.94ZM768.33,168.43v-103.1h19.62v39.09h.22c2.33-3.84,5.7-6.94,10.11-9.29,4.41-2.35,9.29-3.53,14.64-3.53,8.57,0,15.3,2.52,20.18,7.56,4.88,5.04,7.32,11.78,7.32,20.23v49.03h-19.99v-44.28c0-4.85-1.23-8.71-3.68-11.59-2.45-2.88-6.21-4.32-11.26-4.32-4.76,0-8.8,1.73-12.12,5.18-3.32,3.46-4.98,7.78-4.98,12.96v42.05h-20.07ZM848.01,109.18v-15.84h49.5v15.84h-49.5ZM882.88,170.31c-7.04,0-12.66-1.9-16.87-5.69-4.21-3.79-6.32-9.6-6.32-17.42v-72.93h20.07v70.49c0,3.5.72,6,2.15,7.49,1.44,1.49,3.52,2.21,6.24,2.16,1.19,0,2.32-.08,3.38-.25,1.07-.17,3.03-.71,5.91-1.62v15.12c-3.57,1.15-6.32,1.88-8.25,2.2-1.93.31-4.04.47-6.32.47Z"/>
        </g>
      </g>
      <g>
        <g>
          <path class="cls-6" d="M206.71,253.47c-4.67,0-9.17-1.08-13.22-3.13-1.08.19-2.18.29-3.29.29h-44.63c-10.49,0-19-8.51-19-19v-14.22c-3.4.39-6.83.58-10.28.58-10.08,0-19.97-1.68-29.29-4.9v18.53c0,10.49-8.51,19-19,19H19c-10.49,0-19-8.51-19-19V19C0,8.51,8.51,0,19,0h48.99c10.49,0,19,8.51,19,19v24.41c9.33-3.22,19.21-4.89,29.29-4.89,3.47,0,6.9.2,10.28.58v-20.1c0-10.49,8.51-19,19-19h49c10.49,0,18.99,8.5,19,18.99l.05,83.21c5.17,1.45,9.59,5.05,11.99,10.04,3.17,6.56,2.3,14.37-2.23,20.08l-9.75,12.29v1c0,.53-.02,1.07-.07,1.59v40.79c0,.49-.02.98-.06,1.46l13.94,13.94c11.44,11.44,11.44,30.04,0,41.48-5.54,5.54-12.91,8.59-20.74,8.59Z"/>
          <path class="cls-6" d="M214.02,216.84l-43.34-43.34c8.75-10.51,14.51-23.59,15.98-37.94l5.65,7.12c-2.06,10.85-6.43,21.18-12.82,30.23l15.08,15.08v-42.47l.07.08v-7.63s0,0,0,0l13.87-17.48h-13.87v-4.74h0l-.06-96.76h-48.99v37.63c24.48,10.04,42.71,32.29,47.09,59.13h-6.73c-5.9-33.11-34.84-58.24-69.64-58.24-18.63,0-35.58,7.21-48.21,18.98l-.02-14.3s-.04.03-.06.04V19H19v212.63h48.99v-37.46c.09.07.18.14.27.2l-.02-14.2c12.62,11.68,29.5,18.82,48.05,18.82,14.4,0,27.8-4.31,38.97-11.7l44.15,44.15c2.02,2.02,4.66,3.03,7.3,3.03s5.29-1.01,7.3-3.03c4.03-4.03,4.03-10.58,0-14.61ZM34.52,104.37l2.98,3.8h0s-2.98-3.8-2.98-3.8h0ZM154.26,195.69l35.94,35.94h-44.63v-31.73c2.97-1.22,5.88-2.62,8.69-4.21Z"/>
        </g>
        <g>
          <g>
            <path class="cls-5" d="M214.02,216.84l-43.34-43.34c10.21-12.26,16.36-28.03,16.36-45.24,0-39.07-31.67-70.74-70.74-70.74s-70.74,31.67-70.74,70.74,31.67,70.74,70.74,70.74c14.4,0,27.8-4.31,38.97-11.7l44.15,44.15c2.02,2.02,4.66,3.03,7.3,3.03s5.29-1.01,7.3-3.03c4.03-4.03,4.03-10.58,0-14.61Z"/>
            <circle class="cls-21" cx="116.29" cy="127.68" r="56.3"/>
          </g>
          <g>
            <polygon class="cls-6" points="19 127.61 19 124.17 34.43 104.27 60.47 137.48 19 137.48 19 127.61"/>
            <polygon points="34.52 112.06 19 132.73 50.72 132.73 34.52 112.06"/>
          </g>
          <g>
            <polygon class="cls-6" points="170.94 115.76 194.63 115.76 194.63 145.61 170.94 115.76"/>
            <polygon points="194.63 137.98 208.5 120.5 180.76 120.5 194.63 137.98"/>
          </g>
          <g>
            <path class="cls-2" d="M194.56,145.52v42.47l-15.08-15.08c6.4-9.05,10.76-19.39,12.82-30.23l2.26,2.84ZM194.63,120.5l-.07-101.5h-48.99v37.63c24.48,10.04,42.71,32.29,47.09,59.13.25,1.73.37,3.34.22,4.74h-12.11l13.87,17.48,13.87-17.48h-13.87ZM154.26,195.69c-2.81,1.59-5.72,2.99-8.69,4.21v31.73h44.63l-35.94-35.94Z"/>
            <g>
              <path class="cls-12" d="M67.99,19v48.84c-13.71,10.98-23.61,26.52-27.39,44.29l-6.09-7.76-15.52,19.8V19h48.99ZM39.44,137.4c-.19-1.6-.37-3.08-.29-4.74h11.51l-16.15-20.6-15.52,20.6v98.97h48.99v-42.96c-15.47-12.39-26.1-30.6-28.55-51.27Z"/>
              <g class="cls-20">
                <path class="cls-17" d="M39.32,118.12c.05.56,11.41,14.62,11.41,14.62l-13.59.04,2.18-14.66Z"/>
                <path class="cls-11" d="M68.26,194.38c-20.39-14.89-33.17-39.01-33.17-66.19s12.69-51.08,32.96-65.99"/>
              </g>
            </g>
          </g>
          <g>
            <g>
              <rect class="cls-19" x="131.39" y="110.7" width="11.14" height="40.23"/>
              <rect class="cls-19" x="115.56" y="115.47" width="11.14" height="35.91"/>
              <rect class="cls-19" x="99.72" y="115.47" width="11.14" height="35.91"/>
              <rect class="cls-19" x="83.88" y="130.18" width="11.14" height="21.2"/>
            </g>
            <g>
              <path class="cls-6" d="M83.71,146.93c-3.2,0-6.3-1.33-8.5-3.66l-2.56-2.71c-4.41-4.67-4.21-12.07.44-16.5l22.81-21.66c2.55-2.41,5.85-3.72,9.33-3.72s6.65,1.26,9.16,3.56l2.52,2.31,3.16-3.2c-.95-2.4-1.02-5.1-.11-7.6,1.42-3.88,5-6.61,9.12-6.95l14.05-1.18c.28-.02.62-.04.9-.04,2.97,0,5.83,1.26,7.84,3.44s3.02,5.14,2.77,8.11l-1.18,14.05c-.47,5.57-5.04,9.77-10.62,9.77h0c-1.19,0-2.35-.19-3.45-.57l-12.34,12.52c-2.57,2.6-6,4.04-9.66,4.04-3.4,0-6.65-1.26-9.16-3.56l-2.84-2.6-13.63,12.95c-2.18,2.08-5.04,3.22-8.05,3.22Z"/>
              <path class="cls-19" d="M143.95,95.56l-14.05,1.18c-.56.05-.81.73-.41,1.12l4.04,4.04-16.28,16.52-9.63-8.82c-1.38-1.26-3.49-1.24-4.85.04l-22.8,21.66c-.68.64-.7,1.71-.06,2.39l2.56,2.71c.64.68,1.72.71,2.39.06l20.39-19.38,9.72,8.9c1.41,1.29,3.59,1.24,4.94-.13l18.65-18.92,3.8,3.8c.4.4,1.07.15,1.12-.41l1.18-14.05c.03-.41-.31-.75-.71-.71Z"/>
            </g>
          </g>
        </g>
      </g>
    </g>
  </g>
</svg>